<svg width="96" height="26" viewBox="0 0 96 26" fill="none" xmlns="http://www.w3.org/2000/svg">
<path d="M7.83984 2.57617C11.3278 2.57617 13.9844 4.5922 15.2324 7.4082L13.3438 8.46387C12.3197 6 10.4958 4.75195 7.83984 4.75195C5.05593 4.75201 3.2002 6.19207 3.2002 8.62402C3.2002 9.7439 3.58372 10.5761 4.35156 11.1201C5.11956 11.6641 6.40016 12.2404 8.16016 12.8164L9.8877 13.4238C10.2397 13.5198 10.7519 13.712 11.4238 14C12.0957 14.256 12.6077 14.4801 12.9277 14.7041C13.5677 15.0881 14.6882 15.8558 15.0723 16.5918C15.4882 17.2637 15.872 18.3198 15.8721 19.4717C15.8721 21.3596 15.1679 22.8959 13.792 24.0479C12.4161 25.1678 10.5922 25.7441 8.32031 25.7441C4.22448 25.7441 1.15211 23.6962 0 20.2725L1.91992 19.1523C2.71996 21.936 4.92793 23.5682 8.35156 23.5684C11.6795 23.5684 13.6318 21.9681 13.6318 19.5361C13.6318 18.3521 13.2156 17.4879 12.3516 16.8799C11.4875 16.272 10.0796 15.6643 8.12793 15.0244C5.79193 14.2564 4.25553 13.648 3.51953 13.168C1.82377 12.144 0.959961 10.6716 0.959961 8.71973C0.960026 6.83185 1.6324 5.32818 2.94434 4.24023C4.25629 3.12031 5.88795 2.5762 7.83984 2.57617Z" fill="black"/>
<path fill-rule="evenodd" clip-rule="evenodd" d="M43.4971 8.97559C45.8331 8.97559 47.8172 9.7762 49.4492 11.4082C51.0812 13.0082 51.9131 14.9924 51.9131 17.3604C51.913 19.7281 51.0811 21.7119 49.4492 23.3438C47.8172 24.9438 45.8331 25.7441 43.4971 25.7441C41.1612 25.7441 39.1456 24.9437 37.5137 23.3438C35.8818 21.7118 35.0811 19.7282 35.0811 17.3604C35.0811 14.9924 35.8817 13.0082 37.5137 11.4082C39.1456 9.77632 41.1612 8.97563 43.4971 8.97559ZM43.4971 11.0244C41.7373 11.0245 40.2335 11.6321 39.0176 12.8799C37.8016 14.0959 37.1934 15.6004 37.1934 17.3604C37.1934 19.1202 37.8017 20.6242 39.0176 21.8721C40.2335 23.0879 41.7372 23.6962 43.4971 23.6963C45.2571 23.6963 46.7615 23.0881 47.9775 21.8721C49.1934 20.6242 49.8007 19.1201 49.8008 17.3604C49.8008 15.6004 49.1935 14.0959 47.9775 12.8799C46.7615 11.6319 45.2571 11.0244 43.4971 11.0244Z" fill="black"/>
<path fill-rule="evenodd" clip-rule="evenodd" d="M56.96 12.4961C58.432 10.1602 60.5759 8.97559 63.4238 8.97559C65.6956 8.97566 67.6472 9.77636 69.2471 11.4082C70.8791 13.0402 71.6797 15.0244 71.6797 17.3604C71.6796 19.6962 70.879 21.6796 69.2471 23.3115C67.6471 24.9434 65.6957 25.7441 63.4238 25.7441C60.5758 25.7441 58.432 24.5596 56.96 22.2236V25.3604H54.8477V2.95996H56.96V12.4961ZM63.2637 11.0244C61.5037 11.0244 59.9992 11.6319 58.7832 12.8799C57.5673 14.0959 56.96 15.6004 56.96 17.3604C56.96 19.1201 57.5674 20.6242 58.7832 21.8721C59.9992 23.0881 61.5037 23.6963 63.2637 23.6963C65.0235 23.6963 66.5272 23.0879 67.7432 21.8721C68.9591 20.6242 69.5673 19.1202 69.5674 17.3604C69.5674 15.6004 68.9592 14.0959 67.7432 12.8799C66.5272 11.6321 65.0235 11.0245 63.2637 11.0244Z" fill="black"/>
<path fill-rule="evenodd" clip-rule="evenodd" d="M82.0469 8.97559C84.3829 8.97559 86.367 9.77621 87.999 11.4082C89.631 13.0082 90.4629 14.9924 90.4629 17.3604C90.4628 19.7282 89.6309 21.7118 87.999 23.3438C86.367 24.9438 84.3829 25.7441 82.0469 25.7441C79.711 25.7441 77.6954 24.9437 76.0635 23.3438C74.4316 21.7118 73.6309 19.7282 73.6309 17.3604C73.6309 14.9924 74.4315 13.0082 76.0635 11.4082C77.6954 9.7763 79.711 8.97567 82.0469 8.97559ZM82.0469 11.0244C80.2871 11.0245 78.7833 11.6321 77.5674 12.8799C76.3514 14.0959 75.7432 15.6004 75.7432 17.3604C75.7432 19.1202 76.3515 20.6242 77.5674 21.8721C78.7833 23.0879 80.2871 23.6962 82.0469 23.6963C83.8069 23.6963 85.3113 23.0881 86.5273 21.8721C87.7433 20.6242 88.3515 19.1202 88.3516 17.3604C88.3516 15.6004 87.7433 14.0959 86.5273 12.8799C85.3113 11.6319 83.8069 11.0244 82.0469 11.0244Z" fill="black"/>
<path d="M26.2852 8.97559C30.1572 8.97559 32.5576 11.5361 32.5576 15.5361V25.3604H30.4453V15.5361C30.4453 12.6882 28.8776 11.0245 26.0938 11.0244C23.0219 11.0244 20.9093 12.9119 20.9092 16.9756V25.3604H18.7979V9.36035H20.9092V11.8564C22.0931 9.93654 23.8853 8.97568 26.2852 8.97559Z" fill="black"/>
<path d="M95.5098 25.3604H93.3975V2H95.5098V25.3604Z" fill="black"/>
<path fill-rule="evenodd" clip-rule="evenodd" d="M43.3496 0C45.1445 0 46.5996 1.45507 46.5996 3.25C46.5996 5.04493 45.1445 6.5 43.3496 6.5C41.5549 6.49979 40.0996 5.04479 40.0996 3.25C40.0996 1.45521 41.5549 0.00021439 43.3496 0ZM43.3496 1.7002C42.4938 1.70041 41.7998 2.39409 41.7998 3.25C41.7998 4.10591 42.4938 4.79959 43.3496 4.7998C44.2057 4.7998 44.8994 4.10604 44.8994 3.25C44.8994 2.39396 44.2057 1.7002 43.3496 1.7002Z" fill="black"/>
</svg>
