<svg width="843" height="214" viewBox="0 0 843 214" fill="none" xmlns="http://www.w3.org/2000/svg">
<path fill-rule="evenodd" clip-rule="evenodd" d="M380.587 0.00850487C394.976 0.362467 406.444 11.7959 406.444 25.7443C406.444 39.6926 394.976 51.1247 380.587 51.4786L379.9 51.4871C365.192 51.4854 353.355 39.9127 353.355 25.7443C353.355 11.5758 365.192 0.00170729 379.9 0L380.587 0.00850487ZM379.898 10.8948C371.536 10.8971 364.67 17.497 364.67 25.7443L364.69 26.5126C365.101 34.3976 371.798 40.5915 379.898 40.5938L380.677 40.574C388.685 40.179 395.129 33.7346 395.129 25.7443L395.109 24.976C394.712 17.3444 388.427 11.2968 380.677 10.9146L379.898 10.8948Z" fill="#0A0A0A"/>
<path fill-rule="evenodd" clip-rule="evenodd" d="M380.73 77.8719C391.055 77.872 400.477 79.5519 409.01 82.8983L409.017 82.9011C417.756 86.2526 425.216 90.9929 431.41 97.1171L431.422 97.1284L431.433 97.1383C437.821 103.077 442.76 110.224 446.25 118.59L446.254 118.598C449.74 126.765 451.489 135.784 451.489 145.667C451.489 155.55 449.738 164.665 446.25 173.026C442.76 181.203 437.819 188.355 431.422 194.488C425.226 200.428 417.763 205.078 409.017 208.432L409.01 208.435C400.477 211.781 391.055 213.462 380.73 213.462C370.405 213.462 360.881 211.781 352.147 208.432C343.401 205.078 335.937 200.428 329.742 194.488C323.929 188.739 319.307 182.092 315.875 174.541L315.205 173.019C311.719 164.66 309.969 155.547 309.969 145.667C309.969 135.784 311.72 126.765 315.205 118.598L315.208 118.59C318.702 110.217 323.547 103.067 329.742 97.1284L329.753 97.1171C335.948 90.9929 343.407 86.2526 352.147 82.9011C360.881 79.5519 370.406 77.8719 380.73 77.8719ZM380.73 91.131C372.342 91.131 364.722 92.5672 357.886 95.4586C351.079 98.3375 345.257 102.279 340.432 107.286C335.601 112.111 331.882 117.897 329.275 124.628L329.269 124.643C326.861 131.182 325.661 138.194 325.661 145.667C325.661 153.14 326.861 160.241 329.265 166.963L329.272 166.98L329.277 166.997C331.885 173.536 335.6 179.312 340.418 184.316L340.432 184.33C345.258 189.15 351.081 192.996 357.886 195.874C364.722 198.766 372.342 200.202 380.73 200.202C389.117 200.202 396.737 198.766 403.573 195.874C410.377 192.996 416.199 189.15 421.025 184.33L421.026 184.332L421.04 184.316C425.86 179.31 429.478 173.532 431.889 166.989C434.496 160.26 435.798 153.15 435.798 145.667C435.798 138.197 434.499 131.189 431.898 124.653C429.637 118.333 426.312 112.845 421.919 108.203L421.026 107.286C416.201 102.279 410.379 98.3375 403.573 95.4586C396.737 92.5673 389.117 91.1311 380.73 91.131Z" fill="#0A0A0A"/>
<path fill-rule="evenodd" clip-rule="evenodd" d="M496.673 13.9832V104.207H498.849L499.146 103.718C501.84 99.292 505.203 95.515 509.239 92.3827L509.262 92.3657C513.327 89.0245 517.679 86.3366 522.316 84.2988L522.332 84.2917C527.176 82.0624 532.214 80.4832 537.445 79.5545L537.479 79.5488C542.73 78.43 547.878 77.8719 552.922 77.8719C563.247 77.872 572.67 79.5519 581.202 82.8983L581.209 82.9011C589.949 86.2526 597.409 90.9929 603.603 97.1171L603.614 97.1284L603.626 97.1383C610.013 103.077 614.952 110.224 618.443 118.59L618.447 118.598C621.932 126.765 623.682 135.784 623.682 145.667C623.681 155.55 621.931 164.665 618.443 173.026C614.952 181.203 610.011 188.355 603.614 194.488C597.419 200.428 589.955 205.078 581.209 208.432L581.202 208.435C572.67 211.781 563.247 213.462 552.922 213.462C547.878 213.462 542.73 212.904 537.479 211.786L537.462 211.781L537.445 211.778L536.465 211.597C531.583 210.661 526.872 209.236 522.332 207.323C517.685 205.095 513.329 202.405 509.262 199.251C505.214 195.925 501.843 192.047 499.146 187.615L498.849 187.127H496.673V210.063H480.982V13.9832H496.673ZM552.922 91.131C544.728 91.131 537.112 92.5683 530.088 95.4543C523.091 98.3293 516.981 102.263 511.768 107.258C506.546 112.072 502.431 117.846 499.424 124.569L498.876 125.805C496.224 132.009 494.901 138.633 494.901 145.667C494.901 153.169 496.406 160.295 499.418 167.034L499.424 167.047C502.431 173.582 506.542 179.35 511.753 184.346L511.768 184.359C516.982 189.165 523.093 193.004 530.088 195.879C537.112 198.765 544.728 200.202 552.922 200.202C561.31 200.202 568.929 198.766 575.765 195.874C582.569 192.996 588.391 189.15 593.217 184.33L593.219 184.332L593.233 184.316C598.052 179.31 601.67 173.532 604.082 166.989C606.689 160.26 607.99 153.15 607.99 145.667C607.99 138.197 606.692 131.189 604.09 124.653C601.83 118.333 598.505 112.845 594.112 108.203L593.219 107.286C588.394 102.279 582.571 98.3374 575.765 95.4586C568.929 92.5673 561.31 91.1311 552.922 91.131Z" fill="#0A0A0A"/>
<path fill-rule="evenodd" clip-rule="evenodd" d="M720.264 77.8719C730.589 77.8719 740.011 79.552 748.544 82.8983L748.551 82.9011C757.29 86.2525 764.75 90.993 770.945 97.1171L770.956 97.1284L770.967 97.1383C777.355 103.077 782.295 110.224 785.786 118.59L785.789 118.598C789.274 126.765 791.023 135.784 791.023 145.667C791.023 155.547 789.275 164.66 785.789 173.019C782.298 181.2 777.355 188.353 770.956 194.488C764.761 200.428 757.297 205.078 748.551 208.432L748.544 208.435C740.011 211.781 730.589 213.462 720.264 213.462C709.94 213.462 700.415 211.781 691.681 208.432C682.935 205.078 675.471 200.427 669.276 194.488C663.464 188.739 658.843 182.091 655.411 174.541L654.74 173.019C651.253 164.66 649.505 155.547 649.505 145.667C649.505 135.784 651.254 126.765 654.74 118.598L654.742 118.59C658.236 110.217 663.083 103.067 669.278 97.1284L669.287 97.1171C675.482 90.993 682.942 86.2525 691.681 82.9011C700.415 79.5518 709.94 77.8719 720.264 77.8719ZM720.264 91.131C711.877 91.131 704.256 92.5672 697.42 95.4586C690.614 98.3375 684.791 102.279 679.966 107.286L679.074 108.202C674.675 112.838 671.253 118.317 668.809 124.628L668.803 124.643C666.396 131.182 665.196 138.194 665.196 145.667C665.196 153.14 666.396 160.241 668.8 166.963L668.806 166.98L668.813 166.997C671.421 173.536 675.135 179.312 679.954 184.316L679.952 184.318L679.966 184.33C684.792 189.15 690.616 192.996 697.42 195.874C704.256 198.766 711.877 200.202 720.264 200.202C728.652 200.202 736.272 198.766 743.108 195.874C749.912 192.996 755.734 189.15 760.56 184.33L760.562 184.332L760.574 184.316C765.398 179.306 769.018 173.522 771.429 166.972C774.032 160.248 775.332 153.144 775.332 145.667C775.332 138.652 774.188 132.043 771.894 125.851L771.421 124.619C769.01 117.892 765.391 112.109 760.562 107.286C755.737 102.279 749.914 98.3374 743.108 95.4586C736.272 92.5672 728.652 91.1311 720.264 91.131Z" fill="#0A0A0A"/>
<path d="M225.694 77.8719C236.236 77.8719 244.736 79.4635 251.248 82.585C257.81 85.7307 262.885 89.8742 266.513 94.9993L266.524 95.0163L266.538 95.0334C270.374 99.998 272.971 105.799 274.321 112.454L274.324 112.468L274.327 112.481C275.884 119.2 276.663 126.109 276.663 133.208V210.063H260.972V134.057C260.972 129.042 260.535 124.189 259.657 119.5L259.476 118.565C258.469 113.356 256.652 108.703 254.016 104.621C251.545 100.489 247.952 97.256 243.279 94.9185C238.749 92.3666 232.863 91.1311 225.694 91.131C219.081 91.1311 212.76 92.2828 206.738 94.5897C200.877 96.7213 195.724 100.113 191.288 104.753L191.287 104.754C187.04 109.214 183.626 114.908 181.028 121.805L181.023 121.821C178.611 128.565 177.419 136.521 177.419 145.667V210.063H161.727V117.067C161.727 115.207 161.672 113.084 161.56 110.699L161.431 108.229C161.235 104.65 161.037 101.071 160.841 97.4927C160.84 94.8015 160.786 92.266 160.675 89.8865L160.544 87.5505C160.385 84.9481 160.293 82.8565 160.264 81.2696H175.976C176.148 85.816 176.237 90.197 176.237 94.4125V94.4338L176.238 94.4564C176.434 98.9567 176.73 102.017 177.166 103.482L177.382 104.207H179.656L179.936 103.64C183.379 96.6713 189.138 90.6681 197.281 85.6496L197.295 85.6411C205.382 80.4722 214.836 77.8719 225.694 77.8719Z" fill="#0A0A0A"/>
<path d="M843 13.9832V210.063H827.309V13.9832H843Z" fill="#0A0A0A"/>
<path d="M69.4757 7.67298C80.6402 7.67298 90.892 9.60946 100.255 13.4563L100.279 13.4662L100.303 13.4747C109.088 16.8436 116.755 22.4132 123.311 30.2407L110.103 39.348C105.277 33.3244 99.6451 28.7342 93.1938 25.6353C86.3269 22.0527 78.1972 20.3084 68.8849 20.3084C62.4095 20.3085 56.2158 21.1798 50.3122 22.9293C44.3608 24.5033 39.083 26.9755 34.509 30.364C30.1062 33.5828 26.5522 37.7014 23.8485 42.6862C21.0851 47.7812 19.7458 53.7212 19.7458 60.4316C19.7458 70.8214 22.5144 79.1742 28.3365 85.1695L28.3635 85.1964C33.9099 90.7106 40.7586 95.1083 48.8657 98.4116L48.8955 98.4229L48.9238 98.4342C57.0711 101.482 65.8046 104.24 75.1212 106.711L75.1467 106.718L75.1722 106.724C84.4773 108.954 92.9814 112.014 100.694 115.896L100.704 115.9L100.714 115.906C108.477 119.719 114.901 125.063 120.009 131.955L120.026 131.978C124.955 138.453 127.555 147.648 127.556 159.825C127.556 168.598 125.842 176.274 122.475 182.909C119.072 189.616 114.446 195.32 108.585 200.034C102.907 204.569 96.2611 208.036 88.6193 210.417C80.958 212.804 73.0045 214 64.751 214C51.214 214 38.7884 211.776 27.4511 207.356C16.9015 203.067 7.75198 196.112 0 186.426L14.7463 177C19.8808 184.87 26.3703 190.855 34.2186 194.892L34.2285 194.898L34.237 194.902C42.8471 199.226 52.5418 201.363 63.2734 201.363C69.9849 201.363 76.322 200.388 82.2697 198.422C88.1858 196.466 93.3393 193.712 97.6974 190.14C102.271 186.552 105.829 182.243 108.342 177.223C111.068 171.985 112.414 166.171 112.414 159.825C112.414 152.514 110.761 146.291 107.297 141.309C104.147 136.497 99.8666 132.607 94.5071 129.633C89.2334 126.522 83.279 123.912 76.6554 121.794C70.3351 119.711 63.7188 117.629 56.8105 115.547C50.1851 113.492 43.6572 111.156 37.2262 108.541C31.1248 105.981 25.6069 102.697 20.6638 98.6922C15.8013 94.5668 11.8549 89.4469 8.83162 83.3012C6.04752 77.2481 4.60283 69.6534 4.60281 60.4316C4.60281 51.8634 6.31057 44.3908 9.66179 37.956C13.2581 31.242 17.9732 25.734 23.8088 21.4027L23.8159 21.397C29.8884 16.8488 36.8305 13.471 44.6624 11.2734L44.6851 11.2677L44.7078 11.2606C52.5657 8.87203 60.8185 7.67304 69.4757 7.67298Z" fill="#0A0A0A"/>
</svg>
