<svg width="655" height="177" viewBox="0 0 655 177" fill="none" xmlns="http://www.w3.org/2000/svg">
<path d="M53.7356 17.6369C77.6426 17.6369 95.8514 31.4389 104.405 50.7177L91.4606 57.945C84.4413 41.0769 71.94 32.5326 53.7356 32.5326C34.6542 32.533 21.9347 42.3919 21.9347 59.0414C21.9347 66.7082 24.5634 72.4056 29.8263 76.1299C35.0903 79.8542 43.8678 83.7997 55.9311 87.743L67.7719 91.9014C70.1846 92.5586 73.6953 93.8745 78.3006 95.8462C82.906 97.5988 86.4153 99.133 88.6086 100.667C92.9953 103.295 100.675 108.551 103.308 113.59C106.159 118.19 108.789 125.42 108.79 133.306C108.79 146.231 103.963 156.749 94.5327 164.636C85.102 172.303 72.6007 176.248 57.0288 176.248C28.9553 176.248 7.89675 162.228 0 138.789L13.1595 131.12C18.6431 150.177 33.7769 161.352 57.243 161.353C80.0532 161.353 93.4346 150.397 93.4346 133.747C93.4346 125.641 90.5819 119.725 84.6599 115.562C78.7372 111.401 69.0873 107.24 55.7102 102.859C39.6989 97.6015 29.1681 93.4363 24.1234 90.1502C12.5004 83.1397 6.57973 73.0594 6.57973 59.6966C6.58018 46.7719 11.1887 36.4775 20.181 29.0293C29.1733 21.3621 40.357 17.6371 53.7356 17.6369Z" fill="black"/>
<path fill-rule="evenodd" clip-rule="evenodd" d="M298.136 61.4483C314.148 61.4483 327.747 66.9294 338.933 78.1023C350.119 89.0561 355.821 102.64 355.821 118.852C355.82 135.062 350.118 148.643 338.933 159.815C327.747 170.769 314.148 176.248 298.136 176.248C282.126 176.248 268.31 170.768 257.125 159.815C245.94 148.642 240.452 135.062 240.452 118.852C240.452 102.64 245.939 89.0561 257.125 78.1023C268.31 66.9302 282.126 61.4485 298.136 61.4483ZM298.136 75.4747C286.074 75.4754 275.767 79.6351 267.433 88.1778C259.098 96.5027 254.93 106.803 254.93 118.852C254.93 130.9 259.099 141.196 267.433 149.74C275.767 158.063 286.074 162.228 298.136 162.229C310.2 162.229 320.511 158.065 328.846 149.74C337.18 141.196 341.342 130.899 341.343 118.852C341.343 106.803 337.18 96.5027 328.846 88.1778C320.511 79.6338 310.2 75.4747 298.136 75.4747Z" fill="black"/>
<path fill-rule="evenodd" clip-rule="evenodd" d="M390.413 85.5502C400.503 69.5583 415.197 61.4483 434.717 61.4483C450.289 61.4487 463.665 66.9305 474.631 78.1023C485.817 89.2752 491.305 102.859 491.305 118.852C491.304 134.843 485.816 148.422 474.631 159.594C463.664 170.766 450.289 176.248 434.717 176.248C415.197 176.248 400.503 168.139 390.413 152.146V173.621H375.935V20.2643H390.413V85.5502ZM433.62 75.4747C421.557 75.4747 411.245 79.6338 402.91 88.1778C394.576 96.5027 390.413 106.803 390.413 118.852C390.413 130.899 394.577 141.196 402.91 149.74C411.245 158.065 421.557 162.229 433.62 162.229C445.682 162.229 455.989 158.063 464.323 149.74C472.657 141.196 476.826 130.9 476.827 118.852C476.827 106.803 472.658 96.5027 464.323 88.1778C455.989 79.6351 445.682 75.4754 433.62 75.4747Z" fill="black"/>
<path fill-rule="evenodd" clip-rule="evenodd" d="M562.363 61.4483C578.374 61.4483 591.974 66.9294 603.16 78.1023C614.346 89.0561 620.048 102.64 620.048 118.852C620.047 135.062 614.345 148.642 603.16 159.815C591.974 170.769 578.374 176.248 562.363 176.248C546.352 176.248 532.537 170.768 521.352 159.815C510.167 148.642 504.678 135.062 504.678 118.852C504.678 102.64 510.166 89.0561 521.352 78.1023C532.537 66.9301 546.352 61.4488 562.363 61.4483ZM562.363 75.4747C550.301 75.4754 539.994 79.6351 531.66 88.1778C523.325 96.5027 519.156 106.803 519.156 118.852C519.156 130.9 523.326 141.196 531.66 149.74C539.994 158.063 550.301 162.228 562.363 162.229C574.426 162.229 584.738 158.065 593.073 149.74C601.407 141.196 605.576 130.9 605.577 118.852C605.577 106.803 601.407 96.5027 593.073 88.1778C584.738 79.6338 574.426 75.4747 562.363 75.4747Z" fill="black"/>
<path d="M180.163 61.4483C206.702 61.4483 223.155 78.9779 223.155 106.363V173.621H208.677V106.363C208.677 86.8654 197.932 75.4754 178.851 75.4747C157.796 75.4747 143.316 88.3968 143.315 116.218V173.621H128.844V64.0824H143.315V81.1707C151.43 68.0271 163.714 61.4489 180.163 61.4483Z" fill="black"/>
<path d="M654.64 173.621H640.162V13.6923H654.64V173.621Z" fill="black"/>
<path fill-rule="evenodd" clip-rule="evenodd" d="M297.125 0C309.428 0 319.401 9.96163 319.401 22.25C319.401 34.5384 309.428 44.5 297.125 44.5C284.824 44.4986 274.849 34.5374 274.849 22.25C274.849 9.96259 284.824 0.00146775 297.125 0ZM297.125 11.6398C291.26 11.6413 286.503 16.3903 286.503 22.25C286.503 28.1097 291.26 32.8587 297.125 32.8602C302.993 32.8602 307.748 28.1106 307.748 22.25C307.748 16.3894 302.993 11.6398 297.125 11.6398Z" fill="black"/>
</svg>
