<svg width="843" height="208" viewBox="0 0 843 208" fill="none" xmlns="http://www.w3.org/2000/svg">
<path fill-rule="evenodd" clip-rule="evenodd" d="M380.587 0.00850488C394.976 0.362467 406.444 11.7959 406.444 25.7443C406.444 39.6926 394.976 51.1247 380.587 51.4786L379.9 51.4871C365.192 51.4854 353.355 39.9127 353.355 25.7443C353.355 11.5758 365.192 0.00170729 379.9 0L380.587 0.00850488ZM379.898 10.8948C371.536 10.8971 364.67 17.497 364.67 25.7443L364.69 26.5126C365.101 34.3976 371.798 40.5915 379.898 40.5938L380.678 40.574C388.685 40.179 395.129 33.7346 395.129 25.7443L395.109 24.976C394.712 17.3444 388.427 11.2968 380.678 10.9146L379.898 10.8948Z" fill="#0A0A0A"/>
<path fill-rule="evenodd" clip-rule="evenodd" d="M380.73 71.8719C391.055 71.872 400.477 73.5519 409.01 76.8983L409.017 76.9011C417.756 80.2526 425.216 84.9929 431.41 91.1171L431.422 91.1284L431.433 91.1383C437.821 97.0769 442.759 104.224 446.25 112.59L446.254 112.598C449.74 120.765 451.489 129.784 451.489 139.667C451.489 149.55 449.738 158.665 446.25 167.026C442.76 175.203 437.819 182.355 431.422 188.488C425.226 194.428 417.763 199.078 409.017 202.432L409.01 202.435C400.477 205.781 391.055 207.462 380.73 207.462C370.405 207.462 360.881 205.781 352.147 202.432C343.401 199.078 335.937 194.428 329.742 188.488C323.929 182.739 319.307 176.092 315.875 168.541L315.205 167.019C311.719 158.66 309.969 149.547 309.969 139.667C309.969 129.784 311.72 120.765 315.205 112.598L315.208 112.59C318.702 104.217 323.547 97.0674 329.742 91.1284L329.753 91.1171C335.948 84.9929 343.407 80.2526 352.147 76.9011C360.881 73.5519 370.406 71.8719 380.73 71.8719ZM380.73 85.131C372.342 85.131 364.722 86.5672 357.886 89.4586C351.079 92.3375 345.257 96.279 340.432 101.286C335.6 106.111 331.882 111.897 329.274 118.628L329.269 118.643C326.861 125.182 325.661 132.194 325.661 139.667C325.661 147.14 326.861 154.241 329.265 160.963L329.272 160.98L329.277 160.997C331.885 167.536 335.6 173.312 340.418 178.316L340.432 178.33C345.258 183.15 351.081 186.996 357.886 189.874C364.722 192.766 372.342 194.202 380.73 194.202C389.117 194.202 396.737 192.766 403.573 189.874C410.377 186.996 416.199 183.15 421.025 178.33L421.026 178.332L421.04 178.316C425.86 173.31 429.478 167.532 431.889 160.989C434.496 154.26 435.798 147.15 435.798 139.667C435.798 132.197 434.499 125.189 431.898 118.653C429.637 112.333 426.312 106.845 421.919 102.203L421.026 101.286C416.201 96.2791 410.379 92.3375 403.573 89.4586C396.737 86.5673 389.117 85.1311 380.73 85.131Z" fill="#0A0A0A"/>
<path fill-rule="evenodd" clip-rule="evenodd" d="M496.673 7.98325V98.2073H498.849L499.146 97.7183C501.84 93.2921 505.203 89.515 509.239 86.3827L509.262 86.3657C513.327 83.0245 517.679 80.3366 522.316 78.2988L522.332 78.2917C527.176 76.0624 532.214 74.4832 537.445 73.5545L537.479 73.5488C542.73 72.43 547.878 71.8719 552.922 71.8719C563.247 71.872 572.67 73.5519 581.202 76.8983L581.209 76.9011C589.949 80.2526 597.409 84.9929 603.603 91.1171L603.614 91.1284L603.626 91.1383C610.013 97.0769 614.952 104.224 618.443 112.59L618.447 112.598C621.932 120.765 623.682 129.784 623.682 139.667C623.681 149.55 621.931 158.665 618.443 167.026C614.952 175.203 610.011 182.355 603.614 188.488C597.419 194.428 589.955 199.078 581.209 202.432L581.202 202.435C572.67 205.781 563.247 207.462 552.922 207.462C547.878 207.462 542.73 206.904 537.479 205.786L537.462 205.781L537.445 205.778L536.465 205.597C531.583 204.661 526.872 203.236 522.332 201.323C517.685 199.095 513.329 196.405 509.262 193.251C505.214 189.925 501.843 186.047 499.146 181.615L498.849 181.127H496.673V204.063H480.982V7.98325H496.673ZM552.922 85.131C544.728 85.131 537.112 86.5683 530.088 89.4543C523.091 92.3293 516.981 96.2633 511.768 101.258C506.546 106.072 502.431 111.846 499.424 118.569L498.876 119.805C496.224 126.009 494.901 132.633 494.901 139.667C494.901 147.169 496.406 154.295 499.418 161.034L499.424 161.047C502.431 167.582 506.542 173.35 511.753 178.346L511.768 178.359C516.982 183.165 523.093 187.004 530.088 189.879C537.112 192.765 544.728 194.202 552.922 194.202C561.31 194.202 568.929 192.766 575.765 189.874C582.569 186.996 588.391 183.15 593.217 178.33L593.219 178.332L593.233 178.316C598.052 173.31 601.67 167.532 604.082 160.989C606.689 154.26 607.99 147.15 607.99 139.667C607.99 132.197 606.692 125.189 604.09 118.653C601.83 112.333 598.505 106.845 594.112 102.203L593.219 101.286C588.394 96.2791 582.571 92.3374 575.765 89.4586C568.929 86.5673 561.31 85.1311 552.922 85.131Z" fill="#0A0A0A"/>
<path fill-rule="evenodd" clip-rule="evenodd" d="M720.264 71.8719C730.589 71.8719 740.011 73.552 748.544 76.8983L748.551 76.9011C757.29 80.2525 764.75 84.993 770.945 91.1171L770.956 91.1284L770.967 91.1383C777.355 97.0769 782.295 104.224 785.786 112.59L785.789 112.598C789.274 120.765 791.023 129.784 791.023 139.667C791.023 149.547 789.275 158.66 785.789 167.019C782.298 175.2 777.355 182.353 770.956 188.488C764.761 194.428 757.297 199.078 748.551 202.432L748.544 202.435C740.011 205.781 730.589 207.462 720.264 207.462C709.94 207.462 700.415 205.781 691.681 202.432C682.935 199.078 675.471 194.427 669.276 188.488C663.464 182.739 658.843 176.091 655.411 168.541L654.74 167.019C651.253 158.66 649.505 149.547 649.505 139.667C649.505 129.784 651.254 120.765 654.74 112.598L654.742 112.59C658.236 104.217 663.083 97.0675 669.278 91.1284L669.287 91.1171C675.482 84.993 682.942 80.2526 691.681 76.9011C700.415 73.5518 709.94 71.8719 720.264 71.8719ZM720.264 85.131C711.877 85.131 704.256 86.5672 697.42 89.4586C690.614 92.3375 684.791 96.279 679.966 101.286L679.074 102.202C674.675 106.838 671.253 112.317 668.809 118.628L668.803 118.643C666.396 125.182 665.196 132.194 665.196 139.667C665.196 147.14 666.396 154.241 668.8 160.963L668.806 160.98L668.813 160.997C671.421 167.536 675.135 173.312 679.954 178.316L679.952 178.318L679.966 178.33C684.792 183.15 690.616 186.996 697.42 189.874C704.256 192.766 711.877 194.202 720.264 194.202C728.652 194.202 736.272 192.766 743.108 189.874C749.912 186.996 755.734 183.15 760.56 178.33L760.562 178.332L760.574 178.316C765.398 173.306 769.018 167.522 771.429 160.972C774.032 154.248 775.332 147.144 775.332 139.667C775.332 132.652 774.188 126.043 771.894 119.851L771.421 118.619C769.01 111.892 765.391 106.109 760.562 101.286C755.737 96.2793 749.914 92.3374 743.108 89.4586C736.272 86.5672 728.652 85.1311 720.264 85.131Z" fill="#0A0A0A"/>
<path d="M225.694 71.8719C236.236 71.8719 244.736 73.4635 251.248 76.585C257.81 79.7307 262.885 83.8741 266.513 88.9993L266.524 89.0163L266.538 89.0334C270.374 93.998 272.971 99.7988 274.321 106.454L274.324 106.468L274.327 106.481C275.884 113.2 276.663 120.109 276.663 127.208V204.063H260.972V128.057C260.972 123.042 260.535 118.189 259.657 113.5L259.476 112.565C258.469 107.356 256.652 102.703 254.016 98.6212C251.545 94.489 247.952 91.256 243.279 88.9185C238.749 86.3666 232.863 85.1311 225.694 85.131C219.081 85.131 212.76 86.2828 206.738 88.5897C200.877 90.7213 195.724 94.1134 191.288 98.753L191.287 98.7544C187.04 103.214 183.626 108.908 181.028 115.805L181.023 115.821C178.611 122.565 177.419 130.521 177.419 139.667V204.063H161.727V111.067C161.727 109.207 161.672 107.084 161.56 104.699L161.431 102.229C161.235 98.65 161.037 95.0714 160.841 91.4927C160.84 88.8015 160.786 86.266 160.675 83.8865L160.544 81.5505C160.385 78.9481 160.293 76.8565 160.264 75.2696H175.976C176.148 79.816 176.237 84.197 176.237 88.4125V88.4338L176.238 88.4564C176.434 92.9567 176.73 96.0168 177.166 97.4815L177.382 98.2073H179.656L179.936 97.6403C183.379 90.6713 189.138 84.6681 197.281 79.6496L197.295 79.6411C205.382 74.4722 214.836 71.8719 225.694 71.8719Z" fill="#0A0A0A"/>
<path d="M843 7.98325V204.063H827.309V7.98325H843Z" fill="#0A0A0A"/>
<path d="M69.4757 1.67298C80.6402 1.67298 90.892 3.60946 100.255 7.4563L100.279 7.46622L100.303 7.47473C109.088 10.8436 116.755 16.4132 123.311 24.2407L110.103 33.348C105.277 27.3244 99.6451 22.7342 93.1938 19.6353C86.3269 16.0527 78.1972 14.3084 68.8849 14.3084C62.4095 14.3085 56.2158 15.1798 50.3122 16.9293C44.3608 18.5033 39.083 20.9755 34.509 24.364C30.1062 27.5828 26.5522 31.7014 23.8485 36.6862C21.0851 41.7812 19.7458 47.7212 19.7458 54.4316C19.7458 64.8214 22.5144 73.1742 28.3365 79.1695L28.3635 79.1964C33.9099 84.7106 40.7586 89.1083 48.8657 92.4116L48.8955 92.4229L48.9238 92.4342C57.0711 95.4824 65.8046 98.2404 75.1212 100.711L75.1467 100.718L75.1722 100.724C84.4773 102.954 92.9814 106.014 100.694 109.896L100.704 109.9L100.714 109.906C108.477 113.719 114.901 119.063 120.009 125.955L120.026 125.977C124.955 132.453 127.555 141.648 127.556 153.825C127.556 162.598 125.842 170.274 122.475 176.909C119.072 183.616 114.446 189.32 108.585 194.034C102.907 198.569 96.2611 202.036 88.6193 204.417C80.958 206.804 73.0045 208 64.751 208C51.214 208 38.7884 205.776 27.4511 201.356C16.9015 197.068 7.75198 190.112 0 180.426L14.7463 171C19.8808 178.87 26.3703 184.855 34.2186 188.892L34.2285 188.898L34.237 188.902C42.8471 193.226 52.5418 195.363 63.2734 195.363C69.9849 195.363 76.322 194.388 82.2697 192.422C88.1858 190.466 93.3393 187.712 97.6975 184.14C102.271 180.552 105.829 176.243 108.342 171.223C111.068 165.985 112.414 160.171 112.414 153.825C112.414 146.514 110.761 140.291 107.297 135.309C104.147 130.497 99.8666 126.607 94.5071 123.633C89.2334 120.522 83.279 117.912 76.6554 115.794C70.3351 113.711 63.7188 111.629 56.8105 109.547C50.1851 107.492 43.6572 105.156 37.2262 102.541C31.1248 99.9807 25.6069 96.6973 20.6638 92.6922C15.8013 88.5668 11.8549 83.4469 8.83162 77.3012C6.04751 71.2481 4.60283 63.6534 4.60281 54.4316C4.60281 45.8634 6.31057 38.3908 9.66179 31.956C13.2581 25.242 17.9732 19.7341 23.8088 15.4027L23.8159 15.397C29.8884 10.8488 36.8305 7.471 44.6624 5.27338L44.6851 5.26771L44.7078 5.26062C52.5657 2.87203 60.8185 1.67304 69.4757 1.67298Z" fill="#0A0A0A"/>
</svg>
